<?xml version="1.0" encoding="utf-8" standalone="no"?>
<!DOCTYPE svg PUBLIC "-//W3C//DTD SVG 1.1//EN"
  "http://www.w3.org/Graphics/SVG/1.1/DTD/svg11.dtd">
<svg xmlns:xlink="http://www.w3.org/1999/xlink" width="576pt" height="360pt" viewBox="0 0 576 360" xmlns="http://www.w3.org/2000/svg" version="1.1">
 <metadata>
  <rdf:RDF xmlns:dc="http://purl.org/dc/elements/1.1/" xmlns:cc="http://creativecommons.org/ns#" xmlns:rdf="http://www.w3.org/1999/02/22-rdf-syntax-ns#">
   <cc:Work>
    <dc:type rdf:resource="http://purl.org/dc/dcmitype/StillImage"/>
    <dc:date>2025-09-19T22:12:02.862336</dc:date>
    <dc:format>image/svg+xml</dc:format>
    <dc:creator>
     <cc:Agent>
      <dc:title>Matplotlib v3.10.6, https://matplotlib.org/</dc:title>
     </cc:Agent>
    </dc:creator>
   </cc:Work>
  </rdf:RDF>
 </metadata>
 <defs>
  <style type="text/css">*{stroke-linejoin: round; stroke-linecap: butt}</style>
 </defs>
 <g id="figure_1">
  <g id="patch_1">
   <path d="M 0 360 
L 576 360 
L 576 0 
L 0 0 
z
" style="fill: #ffffff"/>
  </g>
  <g id="axes_1">
   <g id="patch_2">
    <path d="M 38.663677 326.643822 
L 572.99976 326.643822 
L 572.99976 3.00024 
L 38.663677 3.00024 
z
" style="fill: #ffffff"/>
   </g>
   <g id="matplotlib.axis_1">
    <g id="xtick_1">
     <g id="line2d_1">
      <path d="M 38.663678 326.643822 
L 38.663678 3.00024 
" clip-path="url(#pd5064524b2)" style="fill: none; stroke: #b0b0b0; stroke-width: 0.6; stroke-linecap: square"/>
     </g>
     <g id="line2d_2">
      <defs>
       <path id="m7b847cea90" d="M 0 0 
L 0 -4 
" style="stroke: #000000; stroke-width: 0.8"/>
      </defs>
      <g>
       <use xlink:href="#m7b847cea90" x="38.663678" y="326.643822" style="stroke: #000000; stroke-width: 0.8"/>
      </g>
     </g>
     <g id="text_1">
      <!-- $1\times10^{2}$ -->
      <g transform="translate(18.753678 338.502104) scale(0.11 -0.11)">
       <defs>
        <path id="DejaVuSans-31" d="M 794 531 
L 1825 531 
L 1825 4091 
L 703 3866 
L 703 4441 
L 1819 4666 
L 2450 4666 
L 2450 531 
L 3481 531 
L 3481 0 
L 794 0 
L 794 531 
z
" transform="scale(0.015625)"/>
        <path id="DejaVuSans-d7" d="M 4488 3438 
L 3059 2003 
L 4488 575 
L 4116 197 
L 2681 1631 
L 1247 197 
L 878 575 
L 2303 2003 
L 878 3438 
L 1247 3816 
L 2681 2381 
L 4116 3816 
L 4488 3438 
z
" transform="scale(0.015625)"/>
        <path id="DejaVuSans-30" d="M 2034 4250 
Q 1547 4250 1301 3770 
Q 1056 3291 1056 2328 
Q 1056 1369 1301 889 
Q 1547 409 2034 409 
Q 2525 409 2770 889 
Q 3016 1369 3016 2328 
Q 3016 3291 2770 3770 
Q 2525 4250 2034 4250 
z
M 2034 4750 
Q 2819 4750 3233 4129 
Q 3647 3509 3647 2328 
Q 3647 1150 3233 529 
Q 2819 -91 2034 -91 
Q 1250 -91 836 529 
Q 422 1150 422 2328 
Q 422 3509 836 4129 
Q 1250 4750 2034 4750 
z
" transform="scale(0.015625)"/>
        <path id="DejaVuSans-32" d="M 1228 531 
L 3431 531 
L 3431 0 
L 469 0 
L 469 531 
Q 828 903 1448 1529 
Q 2069 2156 2228 2338 
Q 2531 2678 2651 2914 
Q 2772 3150 2772 3378 
Q 2772 3750 2511 3984 
Q 2250 4219 1831 4219 
Q 1534 4219 1204 4116 
Q 875 4013 500 3803 
L 500 4441 
Q 881 4594 1212 4672 
Q 1544 4750 1819 4750 
Q 2544 4750 2975 4387 
Q 3406 4025 3406 3419 
Q 3406 3131 3298 2873 
Q 3191 2616 2906 2266 
Q 2828 2175 2409 1742 
Q 1991 1309 1228 531 
z
" transform="scale(0.015625)"/>
       </defs>
       <use xlink:href="#DejaVuSans-31" transform="translate(0 0.765625)"/>
       <use xlink:href="#DejaVuSans-d7" transform="translate(83.105469 0.765625)"/>
       <use xlink:href="#DejaVuSans-31" transform="translate(186.376953 0.765625)"/>
       <use xlink:href="#DejaVuSans-30" transform="translate(250 0.765625)"/>
       <use xlink:href="#DejaVuSans-32" transform="translate(314.580078 39.046875) scale(0.7)"/>
      </g>
     </g>
    </g>
    <g id="xtick_2">
     <g id="line2d_3">
      <path d="M 162.898124 326.643822 
L 162.898124 3.00024 
" clip-path="url(#pd5064524b2)" style="fill: none; stroke: #b0b0b0; stroke-width: 0.6; stroke-linecap: square"/>
     </g>
     <g id="line2d_4">
      <g>
       <use xlink:href="#m7b847cea90" x="162.898124" y="326.643822" style="stroke: #000000; stroke-width: 0.8"/>
      </g>
     </g>
     <g id="text_2">
      <!-- $1\times10^{3}$ -->
      <g transform="translate(142.988124 338.502104) scale(0.11 -0.11)">
       <defs>
        <path id="DejaVuSans-33" d="M 2597 2516 
Q 3050 2419 3304 2112 
Q 3559 1806 3559 1356 
Q 3559 666 3084 287 
Q 2609 -91 1734 -91 
Q 1441 -91 1130 -33 
Q 819 25 488 141 
L 488 750 
Q 750 597 1062 519 
Q 1375 441 1716 441 
Q 2309 441 2620 675 
Q 2931 909 2931 1356 
Q 2931 1769 2642 2001 
Q 2353 2234 1838 2234 
L 1294 2234 
L 1294 2753 
L 1863 2753 
Q 2328 2753 2575 2939 
Q 2822 3125 2822 3475 
Q 2822 3834 2567 4026 
Q 2313 4219 1838 4219 
Q 1578 4219 1281 4162 
Q 984 4106 628 3988 
L 628 4550 
Q 988 4650 1302 4700 
Q 1616 4750 1894 4750 
Q 2613 4750 3031 4423 
Q 3450 4097 3450 3541 
Q 3450 3153 3228 2886 
Q 3006 2619 2597 2516 
z
" transform="scale(0.015625)"/>
       </defs>
       <use xlink:href="#DejaVuSans-31" transform="translate(0 0.765625)"/>
       <use xlink:href="#DejaVuSans-d7" transform="translate(83.105469 0.765625)"/>
       <use xlink:href="#DejaVuSans-31" transform="translate(186.376953 0.765625)"/>
       <use xlink:href="#DejaVuSans-30" transform="translate(250 0.765625)"/>
       <use xlink:href="#DejaVuSans-33" transform="translate(314.580078 39.046875) scale(0.7)"/>
      </g>
     </g>
    </g>
    <g id="xtick_3">
     <g id="line2d_5">
      <path d="M 287.132571 326.643822 
L 287.132571 3.00024 
" clip-path="url(#pd5064524b2)" style="fill: none; stroke: #b0b0b0; stroke-width: 0.6; stroke-linecap: square"/>
     </g>
     <g id="line2d_6">
      <g>
       <use xlink:href="#m7b847cea90" x="287.132571" y="326.643822" style="stroke: #000000; stroke-width: 0.8"/>
      </g>
     </g>
     <g id="text_3">
      <!-- $1\times10^{4}$ -->
      <g transform="translate(267.222571 338.502104) scale(0.11 -0.11)">
       <defs>
        <path id="DejaVuSans-34" d="M 2419 4116 
L 825 1625 
L 2419 1625 
L 2419 4116 
z
M 2253 4666 
L 3047 4666 
L 3047 1625 
L 3713 1625 
L 3713 1100 
L 3047 1100 
L 3047 0 
L 2419 0 
L 2419 1100 
L 313 1100 
L 313 1709 
L 2253 4666 
z
" transform="scale(0.015625)"/>
       </defs>
       <use xlink:href="#DejaVuSans-31" transform="translate(0 0.684375)"/>
       <use xlink:href="#DejaVuSans-d7" transform="translate(83.105469 0.684375)"/>
       <use xlink:href="#DejaVuSans-31" transform="translate(186.376953 0.684375)"/>
       <use xlink:href="#DejaVuSans-30" transform="translate(250 0.684375)"/>
       <use xlink:href="#DejaVuSans-34" transform="translate(314.580078 38.965625) scale(0.7)"/>
      </g>
     </g>
    </g>
    <g id="xtick_4">
     <g id="line2d_7">
      <path d="M 411.367018 326.643822 
L 411.367018 3.00024 
" clip-path="url(#pd5064524b2)" style="fill: none; stroke: #b0b0b0; stroke-width: 0.6; stroke-linecap: square"/>
     </g>
     <g id="line2d_8">
      <g>
       <use xlink:href="#m7b847cea90" x="411.367018" y="326.643822" style="stroke: #000000; stroke-width: 0.8"/>
      </g>
     </g>
     <g id="text_4">
      <!-- $1\times10^{5}$ -->
      <g transform="translate(391.457018 338.502104) scale(0.11 -0.11)">
       <defs>
        <path id="DejaVuSans-35" d="M 691 4666 
L 3169 4666 
L 3169 4134 
L 1269 4134 
L 1269 2991 
Q 1406 3038 1543 3061 
Q 1681 3084 1819 3084 
Q 2600 3084 3056 2656 
Q 3513 2228 3513 1497 
Q 3513 744 3044 326 
Q 2575 -91 1722 -91 
Q 1428 -91 1123 -41 
Q 819 9 494 109 
L 494 744 
Q 775 591 1075 516 
Q 1375 441 1709 441 
Q 2250 441 2565 725 
Q 2881 1009 2881 1497 
Q 2881 1984 2565 2268 
Q 2250 2553 1709 2553 
Q 1456 2553 1204 2497 
Q 953 2441 691 2322 
L 691 4666 
z
" transform="scale(0.015625)"/>
       </defs>
       <use xlink:href="#DejaVuSans-31" transform="translate(0 0.684375)"/>
       <use xlink:href="#DejaVuSans-d7" transform="translate(83.105469 0.684375)"/>
       <use xlink:href="#DejaVuSans-31" transform="translate(186.376953 0.684375)"/>
       <use xlink:href="#DejaVuSans-30" transform="translate(250 0.684375)"/>
       <use xlink:href="#DejaVuSans-35" transform="translate(314.580078 38.965625) scale(0.7)"/>
      </g>
     </g>
    </g>
    <g id="xtick_5">
     <g id="line2d_9">
      <path d="M 535.601465 326.643822 
L 535.601465 3.00024 
" clip-path="url(#pd5064524b2)" style="fill: none; stroke: #b0b0b0; stroke-width: 0.6; stroke-linecap: square"/>
     </g>
     <g id="line2d_10">
      <g>
       <use xlink:href="#m7b847cea90" x="535.601465" y="326.643822" style="stroke: #000000; stroke-width: 0.8"/>
      </g>
     </g>
     <g id="text_5">
      <!-- $1\times10^{6}$ -->
      <g transform="translate(515.691465 338.502104) scale(0.11 -0.11)">
       <defs>
        <path id="DejaVuSans-36" d="M 2113 2584 
Q 1688 2584 1439 2293 
Q 1191 2003 1191 1497 
Q 1191 994 1439 701 
Q 1688 409 2113 409 
Q 2538 409 2786 701 
Q 3034 994 3034 1497 
Q 3034 2003 2786 2293 
Q 2538 2584 2113 2584 
z
M 3366 4563 
L 3366 3988 
Q 3128 4100 2886 4159 
Q 2644 4219 2406 4219 
Q 1781 4219 1451 3797 
Q 1122 3375 1075 2522 
Q 1259 2794 1537 2939 
Q 1816 3084 2150 3084 
Q 2853 3084 3261 2657 
Q 3669 2231 3669 1497 
Q 3669 778 3244 343 
Q 2819 -91 2113 -91 
Q 1303 -91 875 529 
Q 447 1150 447 2328 
Q 447 3434 972 4092 
Q 1497 4750 2381 4750 
Q 2619 4750 2861 4703 
Q 3103 4656 3366 4563 
z
" transform="scale(0.015625)"/>
       </defs>
       <use xlink:href="#DejaVuSans-31" transform="translate(0 0.765625)"/>
       <use xlink:href="#DejaVuSans-d7" transform="translate(83.105469 0.765625)"/>
       <use xlink:href="#DejaVuSans-31" transform="translate(186.376953 0.765625)"/>
       <use xlink:href="#DejaVuSans-30" transform="translate(250 0.765625)"/>
       <use xlink:href="#DejaVuSans-36" transform="translate(314.580078 39.046875) scale(0.7)"/>
      </g>
     </g>
    </g>
    <g id="xtick_6">
     <g id="line2d_11">
      <path d="M 76.061973 326.643822 
L 76.061973 3.00024 
" clip-path="url(#pd5064524b2)" style="fill: none; stroke: #b0b0b0; stroke-width: 0.6; stroke-linecap: square"/>
     </g>
     <g id="line2d_12">
      <defs>
       <path id="m884ac1b991" d="M 0 0 
L 0 -2 
" style="stroke: #808080; stroke-width: 0.8"/>
      </defs>
      <g>
       <use xlink:href="#m884ac1b991" x="76.061973" y="326.643822" style="fill: #808080; stroke: #808080; stroke-width: 0.8"/>
      </g>
     </g>
    </g>
    <g id="xtick_7">
     <g id="line2d_13">
      <path d="M 97.938573 326.643822 
L 97.938573 3.00024 
" clip-path="url(#pd5064524b2)" style="fill: none; stroke: #b0b0b0; stroke-width: 0.6; stroke-linecap: square"/>
     </g>
     <g id="line2d_14">
      <g>
       <use xlink:href="#m884ac1b991" x="97.938573" y="326.643822" style="fill: #808080; stroke: #808080; stroke-width: 0.8"/>
      </g>
     </g>
    </g>
    <g id="xtick_8">
     <g id="line2d_15">
      <path d="M 113.460268 326.643822 
L 113.460268 3.00024 
" clip-path="url(#pd5064524b2)" style="fill: none; stroke: #b0b0b0; stroke-width: 0.6; stroke-linecap: square"/>
     </g>
     <g id="line2d_16">
      <g>
       <use xlink:href="#m884ac1b991" x="113.460268" y="326.643822" style="fill: #808080; stroke: #808080; stroke-width: 0.8"/>
      </g>
     </g>
    </g>
    <g id="xtick_9">
     <g id="line2d_17">
      <path d="M 125.499829 326.643822 
L 125.499829 3.00024 
" clip-path="url(#pd5064524b2)" style="fill: none; stroke: #b0b0b0; stroke-width: 0.6; stroke-linecap: square"/>
     </g>
     <g id="line2d_18">
      <g>
       <use xlink:href="#m884ac1b991" x="125.499829" y="326.643822" style="fill: #808080; stroke: #808080; stroke-width: 0.8"/>
      </g>
     </g>
    </g>
    <g id="xtick_10">
     <g id="line2d_19">
      <path d="M 135.336868 326.643822 
L 135.336868 3.00024 
" clip-path="url(#pd5064524b2)" style="fill: none; stroke: #b0b0b0; stroke-width: 0.6; stroke-linecap: square"/>
     </g>
     <g id="line2d_20">
      <g>
       <use xlink:href="#m884ac1b991" x="135.336868" y="326.643822" style="fill: #808080; stroke: #808080; stroke-width: 0.8"/>
      </g>
     </g>
    </g>
    <g id="xtick_11">
     <g id="line2d_21">
      <path d="M 143.653965 326.643822 
L 143.653965 3.00024 
" clip-path="url(#pd5064524b2)" style="fill: none; stroke: #b0b0b0; stroke-width: 0.6; stroke-linecap: square"/>
     </g>
     <g id="line2d_22">
      <g>
       <use xlink:href="#m884ac1b991" x="143.653965" y="326.643822" style="fill: #808080; stroke: #808080; stroke-width: 0.8"/>
      </g>
     </g>
    </g>
    <g id="xtick_12">
     <g id="line2d_23">
      <path d="M 150.858563 326.643822 
L 150.858563 3.00024 
" clip-path="url(#pd5064524b2)" style="fill: none; stroke: #b0b0b0; stroke-width: 0.6; stroke-linecap: square"/>
     </g>
     <g id="line2d_24">
      <g>
       <use xlink:href="#m884ac1b991" x="150.858563" y="326.643822" style="fill: #808080; stroke: #808080; stroke-width: 0.8"/>
      </g>
     </g>
    </g>
    <g id="xtick_13">
     <g id="line2d_25">
      <path d="M 157.213468 326.643822 
L 157.213468 3.00024 
" clip-path="url(#pd5064524b2)" style="fill: none; stroke: #b0b0b0; stroke-width: 0.6; stroke-linecap: square"/>
     </g>
     <g id="line2d_26">
      <g>
       <use xlink:href="#m884ac1b991" x="157.213468" y="326.643822" style="fill: #808080; stroke: #808080; stroke-width: 0.8"/>
      </g>
     </g>
    </g>
    <g id="xtick_14">
     <g id="line2d_27">
      <path d="M 200.296419 326.643822 
L 200.296419 3.00024 
" clip-path="url(#pd5064524b2)" style="fill: none; stroke: #b0b0b0; stroke-width: 0.6; stroke-linecap: square"/>
     </g>
     <g id="line2d_28">
      <g>
       <use xlink:href="#m884ac1b991" x="200.296419" y="326.643822" style="fill: #808080; stroke: #808080; stroke-width: 0.8"/>
      </g>
     </g>
    </g>
    <g id="xtick_15">
     <g id="line2d_29">
      <path d="M 222.17302 326.643822 
L 222.17302 3.00024 
" clip-path="url(#pd5064524b2)" style="fill: none; stroke: #b0b0b0; stroke-width: 0.6; stroke-linecap: square"/>
     </g>
     <g id="line2d_30">
      <g>
       <use xlink:href="#m884ac1b991" x="222.17302" y="326.643822" style="fill: #808080; stroke: #808080; stroke-width: 0.8"/>
      </g>
     </g>
    </g>
    <g id="xtick_16">
     <g id="line2d_31">
      <path d="M 237.694714 326.643822 
L 237.694714 3.00024 
" clip-path="url(#pd5064524b2)" style="fill: none; stroke: #b0b0b0; stroke-width: 0.6; stroke-linecap: square"/>
     </g>
     <g id="line2d_32">
      <g>
       <use xlink:href="#m884ac1b991" x="237.694714" y="326.643822" style="fill: #808080; stroke: #808080; stroke-width: 0.8"/>
      </g>
     </g>
    </g>
    <g id="xtick_17">
     <g id="line2d_33">
      <path d="M 249.734276 326.643822 
L 249.734276 3.00024 
" clip-path="url(#pd5064524b2)" style="fill: none; stroke: #b0b0b0; stroke-width: 0.6; stroke-linecap: square"/>
     </g>
     <g id="line2d_34">
      <g>
       <use xlink:href="#m884ac1b991" x="249.734276" y="326.643822" style="fill: #808080; stroke: #808080; stroke-width: 0.8"/>
      </g>
     </g>
    </g>
    <g id="xtick_18">
     <g id="line2d_35">
      <path d="M 259.571315 326.643822 
L 259.571315 3.00024 
" clip-path="url(#pd5064524b2)" style="fill: none; stroke: #b0b0b0; stroke-width: 0.6; stroke-linecap: square"/>
     </g>
     <g id="line2d_36">
      <g>
       <use xlink:href="#m884ac1b991" x="259.571315" y="326.643822" style="fill: #808080; stroke: #808080; stroke-width: 0.8"/>
      </g>
     </g>
    </g>
    <g id="xtick_19">
     <g id="line2d_37">
      <path d="M 267.888412 326.643822 
L 267.888412 3.00024 
" clip-path="url(#pd5064524b2)" style="fill: none; stroke: #b0b0b0; stroke-width: 0.6; stroke-linecap: square"/>
     </g>
     <g id="line2d_38">
      <g>
       <use xlink:href="#m884ac1b991" x="267.888412" y="326.643822" style="fill: #808080; stroke: #808080; stroke-width: 0.8"/>
      </g>
     </g>
    </g>
    <g id="xtick_20">
     <g id="line2d_39">
      <path d="M 275.093009 326.643822 
L 275.093009 3.00024 
" clip-path="url(#pd5064524b2)" style="fill: none; stroke: #b0b0b0; stroke-width: 0.6; stroke-linecap: square"/>
     </g>
     <g id="line2d_40">
      <g>
       <use xlink:href="#m884ac1b991" x="275.093009" y="326.643822" style="fill: #808080; stroke: #808080; stroke-width: 0.8"/>
      </g>
     </g>
    </g>
    <g id="xtick_21">
     <g id="line2d_41">
      <path d="M 281.447915 326.643822 
L 281.447915 3.00024 
" clip-path="url(#pd5064524b2)" style="fill: none; stroke: #b0b0b0; stroke-width: 0.6; stroke-linecap: square"/>
     </g>
     <g id="line2d_42">
      <g>
       <use xlink:href="#m884ac1b991" x="281.447915" y="326.643822" style="fill: #808080; stroke: #808080; stroke-width: 0.8"/>
      </g>
     </g>
    </g>
    <g id="xtick_22">
     <g id="line2d_43">
      <path d="M 324.530866 326.643822 
L 324.530866 3.00024 
" clip-path="url(#pd5064524b2)" style="fill: none; stroke: #b0b0b0; stroke-width: 0.6; stroke-linecap: square"/>
     </g>
     <g id="line2d_44">
      <g>
       <use xlink:href="#m884ac1b991" x="324.530866" y="326.643822" style="fill: #808080; stroke: #808080; stroke-width: 0.8"/>
      </g>
     </g>
    </g>
    <g id="xtick_23">
     <g id="line2d_45">
      <path d="M 346.407466 326.643822 
L 346.407466 3.00024 
" clip-path="url(#pd5064524b2)" style="fill: none; stroke: #b0b0b0; stroke-width: 0.6; stroke-linecap: square"/>
     </g>
     <g id="line2d_46">
      <g>
       <use xlink:href="#m884ac1b991" x="346.407466" y="326.643822" style="fill: #808080; stroke: #808080; stroke-width: 0.8"/>
      </g>
     </g>
    </g>
    <g id="xtick_24">
     <g id="line2d_47">
      <path d="M 361.929161 326.643822 
L 361.929161 3.00024 
" clip-path="url(#pd5064524b2)" style="fill: none; stroke: #b0b0b0; stroke-width: 0.6; stroke-linecap: square"/>
     </g>
     <g id="line2d_48">
      <g>
       <use xlink:href="#m884ac1b991" x="361.929161" y="326.643822" style="fill: #808080; stroke: #808080; stroke-width: 0.8"/>
      </g>
     </g>
    </g>
    <g id="xtick_25">
     <g id="line2d_49">
      <path d="M 373.968723 326.643822 
L 373.968723 3.00024 
" clip-path="url(#pd5064524b2)" style="fill: none; stroke: #b0b0b0; stroke-width: 0.6; stroke-linecap: square"/>
     </g>
     <g id="line2d_50">
      <g>
       <use xlink:href="#m884ac1b991" x="373.968723" y="326.643822" style="fill: #808080; stroke: #808080; stroke-width: 0.8"/>
      </g>
     </g>
    </g>
    <g id="xtick_26">
     <g id="line2d_51">
      <path d="M 383.805761 326.643822 
L 383.805761 3.00024 
" clip-path="url(#pd5064524b2)" style="fill: none; stroke: #b0b0b0; stroke-width: 0.6; stroke-linecap: square"/>
     </g>
     <g id="line2d_52">
      <g>
       <use xlink:href="#m884ac1b991" x="383.805761" y="326.643822" style="fill: #808080; stroke: #808080; stroke-width: 0.8"/>
      </g>
     </g>
    </g>
    <g id="xtick_27">
     <g id="line2d_53">
      <path d="M 392.122859 326.643822 
L 392.122859 3.00024 
" clip-path="url(#pd5064524b2)" style="fill: none; stroke: #b0b0b0; stroke-width: 0.6; stroke-linecap: square"/>
     </g>
     <g id="line2d_54">
      <g>
       <use xlink:href="#m884ac1b991" x="392.122859" y="326.643822" style="fill: #808080; stroke: #808080; stroke-width: 0.8"/>
      </g>
     </g>
    </g>
    <g id="xtick_28">
     <g id="line2d_55">
      <path d="M 399.327456 326.643822 
L 399.327456 3.00024 
" clip-path="url(#pd5064524b2)" style="fill: none; stroke: #b0b0b0; stroke-width: 0.6; stroke-linecap: square"/>
     </g>
     <g id="line2d_56">
      <g>
       <use xlink:href="#m884ac1b991" x="399.327456" y="326.643822" style="fill: #808080; stroke: #808080; stroke-width: 0.8"/>
      </g>
     </g>
    </g>
    <g id="xtick_29">
     <g id="line2d_57">
      <path d="M 405.682362 326.643822 
L 405.682362 3.00024 
" clip-path="url(#pd5064524b2)" style="fill: none; stroke: #b0b0b0; stroke-width: 0.6; stroke-linecap: square"/>
     </g>
     <g id="line2d_58">
      <g>
       <use xlink:href="#m884ac1b991" x="405.682362" y="326.643822" style="fill: #808080; stroke: #808080; stroke-width: 0.8"/>
      </g>
     </g>
    </g>
    <g id="xtick_30">
     <g id="line2d_59">
      <path d="M 448.765313 326.643822 
L 448.765313 3.00024 
" clip-path="url(#pd5064524b2)" style="fill: none; stroke: #b0b0b0; stroke-width: 0.6; stroke-linecap: square"/>
     </g>
     <g id="line2d_60">
      <g>
       <use xlink:href="#m884ac1b991" x="448.765313" y="326.643822" style="fill: #808080; stroke: #808080; stroke-width: 0.8"/>
      </g>
     </g>
    </g>
    <g id="xtick_31">
     <g id="line2d_61">
      <path d="M 470.641913 326.643822 
L 470.641913 3.00024 
" clip-path="url(#pd5064524b2)" style="fill: none; stroke: #b0b0b0; stroke-width: 0.6; stroke-linecap: square"/>
     </g>
     <g id="line2d_62">
      <g>
       <use xlink:href="#m884ac1b991" x="470.641913" y="326.643822" style="fill: #808080; stroke: #808080; stroke-width: 0.8"/>
      </g>
     </g>
    </g>
    <g id="xtick_32">
     <g id="line2d_63">
      <path d="M 486.163608 326.643822 
L 486.163608 3.00024 
" clip-path="url(#pd5064524b2)" style="fill: none; stroke: #b0b0b0; stroke-width: 0.6; stroke-linecap: square"/>
     </g>
     <g id="line2d_64">
      <g>
       <use xlink:href="#m884ac1b991" x="486.163608" y="326.643822" style="fill: #808080; stroke: #808080; stroke-width: 0.8"/>
      </g>
     </g>
    </g>
    <g id="xtick_33">
     <g id="line2d_65">
      <path d="M 498.20317 326.643822 
L 498.20317 3.00024 
" clip-path="url(#pd5064524b2)" style="fill: none; stroke: #b0b0b0; stroke-width: 0.6; stroke-linecap: square"/>
     </g>
     <g id="line2d_66">
      <g>
       <use xlink:href="#m884ac1b991" x="498.20317" y="326.643822" style="fill: #808080; stroke: #808080; stroke-width: 0.8"/>
      </g>
     </g>
    </g>
    <g id="xtick_34">
     <g id="line2d_67">
      <path d="M 508.040208 326.643822 
L 508.040208 3.00024 
" clip-path="url(#pd5064524b2)" style="fill: none; stroke: #b0b0b0; stroke-width: 0.6; stroke-linecap: square"/>
     </g>
     <g id="line2d_68">
      <g>
       <use xlink:href="#m884ac1b991" x="508.040208" y="326.643822" style="fill: #808080; stroke: #808080; stroke-width: 0.8"/>
      </g>
     </g>
    </g>
    <g id="xtick_35">
     <g id="line2d_69">
      <path d="M 516.357306 326.643822 
L 516.357306 3.00024 
" clip-path="url(#pd5064524b2)" style="fill: none; stroke: #b0b0b0; stroke-width: 0.6; stroke-linecap: square"/>
     </g>
     <g id="line2d_70">
      <g>
       <use xlink:href="#m884ac1b991" x="516.357306" y="326.643822" style="fill: #808080; stroke: #808080; stroke-width: 0.8"/>
      </g>
     </g>
    </g>
    <g id="xtick_36">
     <g id="line2d_71">
      <path d="M 523.561903 326.643822 
L 523.561903 3.00024 
" clip-path="url(#pd5064524b2)" style="fill: none; stroke: #b0b0b0; stroke-width: 0.6; stroke-linecap: square"/>
     </g>
     <g id="line2d_72">
      <g>
       <use xlink:href="#m884ac1b991" x="523.561903" y="326.643822" style="fill: #808080; stroke: #808080; stroke-width: 0.8"/>
      </g>
     </g>
    </g>
    <g id="xtick_37">
     <g id="line2d_73">
      <path d="M 529.916808 326.643822 
L 529.916808 3.00024 
" clip-path="url(#pd5064524b2)" style="fill: none; stroke: #b0b0b0; stroke-width: 0.6; stroke-linecap: square"/>
     </g>
     <g id="line2d_74">
      <g>
       <use xlink:href="#m884ac1b991" x="529.916808" y="326.643822" style="fill: #808080; stroke: #808080; stroke-width: 0.8"/>
      </g>
     </g>
    </g>
    <g id="xtick_38">
     <g id="line2d_75">
      <path d="M 572.99976 326.643822 
L 572.99976 3.00024 
" clip-path="url(#pd5064524b2)" style="fill: none; stroke: #b0b0b0; stroke-width: 0.6; stroke-linecap: square"/>
     </g>
     <g id="line2d_76">
      <g>
       <use xlink:href="#m884ac1b991" x="572.99976" y="326.643822" style="fill: #808080; stroke: #808080; stroke-width: 0.8"/>
      </g>
     </g>
    </g>
    <g id="text_6">
     <!-- Molecular weight, $M$ (g mol$^{-1}$) -->
     <g transform="translate(223.166719 354.68976) scale(0.11 -0.11)">
      <defs>
       <path id="DejaVuSans-4d" d="M 628 4666 
L 1569 4666 
L 2759 1491 
L 3956 4666 
L 4897 4666 
L 4897 0 
L 4281 0 
L 4281 4097 
L 3078 897 
L 2444 897 
L 1241 4097 
L 1241 0 
L 628 0 
L 628 4666 
z
" transform="scale(0.015625)"/>
       <path id="DejaVuSans-6f" d="M 1959 3097 
Q 1497 3097 1228 2736 
Q 959 2375 959 1747 
Q 959 1119 1226 758 
Q 1494 397 1959 397 
Q 2419 397 2687 759 
Q 2956 1122 2956 1747 
Q 2956 2369 2687 2733 
Q 2419 3097 1959 3097 
z
M 1959 3584 
Q 2709 3584 3137 3096 
Q 3566 2609 3566 1747 
Q 3566 888 3137 398 
Q 2709 -91 1959 -91 
Q 1206 -91 779 398 
Q 353 888 353 1747 
Q 353 2609 779 3096 
Q 1206 3584 1959 3584 
z
" transform="scale(0.015625)"/>
       <path id="DejaVuSans-6c" d="M 603 4863 
L 1178 4863 
L 1178 0 
L 603 0 
L 603 4863 
z
" transform="scale(0.015625)"/>
       <path id="DejaVuSans-65" d="M 3597 1894 
L 3597 1613 
L 953 1613 
Q 991 1019 1311 708 
Q 1631 397 2203 397 
Q 2534 397 2845 478 
Q 3156 559 3463 722 
L 3463 178 
Q 3153 47 2828 -22 
Q 2503 -91 2169 -91 
Q 1331 -91 842 396 
Q 353 884 353 1716 
Q 353 2575 817 3079 
Q 1281 3584 2069 3584 
Q 2775 3584 3186 3129 
Q 3597 2675 3597 1894 
z
M 3022 2063 
Q 3016 2534 2758 2815 
Q 2500 3097 2075 3097 
Q 1594 3097 1305 2825 
Q 1016 2553 972 2059 
L 3022 2063 
z
" transform="scale(0.015625)"/>
       <path id="DejaVuSans-63" d="M 3122 3366 
L 3122 2828 
Q 2878 2963 2633 3030 
Q 2388 3097 2138 3097 
Q 1578 3097 1268 2742 
Q 959 2388 959 1747 
Q 959 1106 1268 751 
Q 1578 397 2138 397 
Q 2388 397 2633 464 
Q 2878 531 3122 666 
L 3122 134 
Q 2881 22 2623 -34 
Q 2366 -91 2075 -91 
Q 1284 -91 818 406 
Q 353 903 353 1747 
Q 353 2603 823 3093 
Q 1294 3584 2113 3584 
Q 2378 3584 2631 3529 
Q 2884 3475 3122 3366 
z
" transform="scale(0.015625)"/>
       <path id="DejaVuSans-75" d="M 544 1381 
L 544 3500 
L 1119 3500 
L 1119 1403 
Q 1119 906 1312 657 
Q 1506 409 1894 409 
Q 2359 409 2629 706 
Q 2900 1003 2900 1516 
L 2900 3500 
L 3475 3500 
L 3475 0 
L 2900 0 
L 2900 538 
Q 2691 219 2414 64 
Q 2138 -91 1772 -91 
Q 1169 -91 856 284 
Q 544 659 544 1381 
z
M 1991 3584 
L 1991 3584 
z
" transform="scale(0.015625)"/>
       <path id="DejaVuSans-61" d="M 2194 1759 
Q 1497 1759 1228 1600 
Q 959 1441 959 1056 
Q 959 750 1161 570 
Q 1363 391 1709 391 
Q 2188 391 2477 730 
Q 2766 1069 2766 1631 
L 2766 1759 
L 2194 1759 
z
M 3341 1997 
L 3341 0 
L 2766 0 
L 2766 531 
Q 2569 213 2275 61 
Q 1981 -91 1556 -91 
Q 1019 -91 701 211 
Q 384 513 384 1019 
Q 384 1609 779 1909 
Q 1175 2209 1959 2209 
L 2766 2209 
L 2766 2266 
Q 2766 2663 2505 2880 
Q 2244 3097 1772 3097 
Q 1472 3097 1187 3025 
Q 903 2953 641 2809 
L 641 3341 
Q 956 3463 1253 3523 
Q 1550 3584 1831 3584 
Q 2591 3584 2966 3190 
Q 3341 2797 3341 1997 
z
" transform="scale(0.015625)"/>
       <path id="DejaVuSans-72" d="M 2631 2963 
Q 2534 3019 2420 3045 
Q 2306 3072 2169 3072 
Q 1681 3072 1420 2755 
Q 1159 2438 1159 1844 
L 1159 0 
L 581 0 
L 581 3500 
L 1159 3500 
L 1159 2956 
Q 1341 3275 1631 3429 
Q 1922 3584 2338 3584 
Q 2397 3584 2469 3576 
Q 2541 3569 2628 3553 
L 2631 2963 
z
" transform="scale(0.015625)"/>
       <path id="DejaVuSans-20" transform="scale(0.015625)"/>
       <path id="DejaVuSans-77" d="M 269 3500 
L 844 3500 
L 1563 769 
L 2278 3500 
L 2956 3500 
L 3675 769 
L 4391 3500 
L 4966 3500 
L 4050 0 
L 3372 0 
L 2619 2869 
L 1863 0 
L 1184 0 
L 269 3500 
z
" transform="scale(0.015625)"/>
       <path id="DejaVuSans-69" d="M 603 3500 
L 1178 3500 
L 1178 0 
L 603 0 
L 603 3500 
z
M 603 4863 
L 1178 4863 
L 1178 4134 
L 603 4134 
L 603 4863 
z
" transform="scale(0.015625)"/>
       <path id="DejaVuSans-67" d="M 2906 1791 
Q 2906 2416 2648 2759 
Q 2391 3103 1925 3103 
Q 1463 3103 1205 2759 
Q 947 2416 947 1791 
Q 947 1169 1205 825 
Q 1463 481 1925 481 
Q 2391 481 2648 825 
Q 2906 1169 2906 1791 
z
M 3481 434 
Q 3481 -459 3084 -895 
Q 2688 -1331 1869 -1331 
Q 1566 -1331 1297 -1286 
Q 1028 -1241 775 -1147 
L 775 -588 
Q 1028 -725 1275 -790 
Q 1522 -856 1778 -856 
Q 2344 -856 2625 -561 
Q 2906 -266 2906 331 
L 2906 616 
Q 2728 306 2450 153 
Q 2172 0 1784 0 
Q 1141 0 747 490 
Q 353 981 353 1791 
Q 353 2603 747 3093 
Q 1141 3584 1784 3584 
Q 2172 3584 2450 3431 
Q 2728 3278 2906 2969 
L 2906 3500 
L 3481 3500 
L 3481 434 
z
" transform="scale(0.015625)"/>
       <path id="DejaVuSans-68" d="M 3513 2113 
L 3513 0 
L 2938 0 
L 2938 2094 
Q 2938 2591 2744 2837 
Q 2550 3084 2163 3084 
Q 1697 3084 1428 2787 
Q 1159 2491 1159 1978 
L 1159 0 
L 581 0 
L 581 4863 
L 1159 4863 
L 1159 2956 
Q 1366 3272 1645 3428 
Q 1925 3584 2291 3584 
Q 2894 3584 3203 3211 
Q 3513 2838 3513 2113 
z
" transform="scale(0.015625)"/>
       <path id="DejaVuSans-74" d="M 1172 4494 
L 1172 3500 
L 2356 3500 
L 2356 3053 
L 1172 3053 
L 1172 1153 
Q 1172 725 1289 603 
Q 1406 481 1766 481 
L 2356 481 
L 2356 0 
L 1766 0 
Q 1100 0 847 248 
Q 594 497 594 1153 
L 594 3053 
L 172 3053 
L 172 3500 
L 594 3500 
L 594 4494 
L 1172 4494 
z
" transform="scale(0.015625)"/>
       <path id="DejaVuSans-2c" d="M 750 794 
L 1409 794 
L 1409 256 
L 897 -744 
L 494 -744 
L 750 256 
L 750 794 
z
" transform="scale(0.015625)"/>
       <path id="DejaVuSans-Oblique-4d" d="M 1081 4666 
L 2028 4666 
L 2572 1522 
L 4378 4666 
L 5350 4666 
L 4441 0 
L 3828 0 
L 4622 4091 
L 2791 897 
L 2175 897 
L 1581 4103 
L 788 0 
L 172 0 
L 1081 4666 
z
" transform="scale(0.015625)"/>
       <path id="DejaVuSans-28" d="M 1984 4856 
Q 1566 4138 1362 3434 
Q 1159 2731 1159 2009 
Q 1159 1288 1364 580 
Q 1569 -128 1984 -844 
L 1484 -844 
Q 1016 -109 783 600 
Q 550 1309 550 2009 
Q 550 2706 781 3412 
Q 1013 4119 1484 4856 
L 1984 4856 
z
" transform="scale(0.015625)"/>
       <path id="DejaVuSans-6d" d="M 3328 2828 
Q 3544 3216 3844 3400 
Q 4144 3584 4550 3584 
Q 5097 3584 5394 3201 
Q 5691 2819 5691 2113 
L 5691 0 
L 5113 0 
L 5113 2094 
Q 5113 2597 4934 2840 
Q 4756 3084 4391 3084 
Q 3944 3084 3684 2787 
Q 3425 2491 3425 1978 
L 3425 0 
L 2847 0 
L 2847 2094 
Q 2847 2600 2669 2842 
Q 2491 3084 2119 3084 
Q 1678 3084 1418 2786 
Q 1159 2488 1159 1978 
L 1159 0 
L 581 0 
L 581 3500 
L 1159 3500 
L 1159 2956 
Q 1356 3278 1631 3431 
Q 1906 3584 2284 3584 
Q 2666 3584 2933 3390 
Q 3200 3197 3328 2828 
z
" transform="scale(0.015625)"/>
       <path id="DejaVuSans-2212" d="M 678 2272 
L 4684 2272 
L 4684 1741 
L 678 1741 
L 678 2272 
z
" transform="scale(0.015625)"/>
       <path id="DejaVuSans-29" d="M 513 4856 
L 1013 4856 
Q 1481 4119 1714 3412 
Q 1947 2706 1947 2009 
Q 1947 1309 1714 600 
Q 1481 -109 1013 -844 
L 513 -844 
Q 928 -128 1133 580 
Q 1338 1288 1338 2009 
Q 1338 2731 1133 3434 
Q 928 4138 513 4856 
z
" transform="scale(0.015625)"/>
      </defs>
      <use xlink:href="#DejaVuSans-4d" transform="translate(0 0.684375)"/>
      <use xlink:href="#DejaVuSans-6f" transform="translate(86.279297 0.684375)"/>
      <use xlink:href="#DejaVuSans-6c" transform="translate(147.460938 0.684375)"/>
      <use xlink:href="#DejaVuSans-65" transform="translate(175.244141 0.684375)"/>
      <use xlink:href="#DejaVuSans-63" transform="translate(236.767578 0.684375)"/>
      <use xlink:href="#DejaVuSans-75" transform="translate(291.748047 0.684375)"/>
      <use xlink:href="#DejaVuSans-6c" transform="translate(355.126953 0.684375)"/>
      <use xlink:href="#DejaVuSans-61" transform="translate(382.910156 0.684375)"/>
      <use xlink:href="#DejaVuSans-72" transform="translate(444.189453 0.684375)"/>
      <use xlink:href="#DejaVuSans-20" transform="translate(485.302734 0.684375)"/>
      <use xlink:href="#DejaVuSans-77" transform="translate(517.089844 0.684375)"/>
      <use xlink:href="#DejaVuSans-65" transform="translate(598.876953 0.684375)"/>
      <use xlink:href="#DejaVuSans-69" transform="translate(660.400391 0.684375)"/>
      <use xlink:href="#DejaVuSans-67" transform="translate(688.183594 0.684375)"/>
      <use xlink:href="#DejaVuSans-68" transform="translate(751.660156 0.684375)"/>
      <use xlink:href="#DejaVuSans-74" transform="translate(815.039062 0.684375)"/>
      <use xlink:href="#DejaVuSans-2c" transform="translate(854.248047 0.684375)"/>
      <use xlink:href="#DejaVuSans-20" transform="translate(886.035156 0.684375)"/>
      <use xlink:href="#DejaVuSans-Oblique-4d" transform="translate(917.822266 0.684375)"/>
      <use xlink:href="#DejaVuSans-20" transform="translate(1004.101562 0.684375)"/>
      <use xlink:href="#DejaVuSans-28" transform="translate(1035.888672 0.684375)"/>
      <use xlink:href="#DejaVuSans-67" transform="translate(1074.902344 0.684375)"/>
      <use xlink:href="#DejaVuSans-20" transform="translate(1138.378906 0.684375)"/>
      <use xlink:href="#DejaVuSans-6d" transform="translate(1170.166016 0.684375)"/>
      <use xlink:href="#DejaVuSans-6f" transform="translate(1267.578125 0.684375)"/>
      <use xlink:href="#DejaVuSans-6c" transform="translate(1328.759766 0.684375)"/>
      <use xlink:href="#DejaVuSans-2212" transform="translate(1357.5 38.965625) scale(0.7)"/>
      <use xlink:href="#DejaVuSans-31" transform="translate(1416.152344 38.965625) scale(0.7)"/>
      <use xlink:href="#DejaVuSans-29" transform="translate(1463.422852 0.684375)"/>
     </g>
    </g>
   </g>
   <g id="matplotlib.axis_2">
    <g id="ytick_1">
     <g id="line2d_77">
      <path d="M 38.663677 311.932751 
L 572.99976 311.932751 
" clip-path="url(#pd5064524b2)" style="fill: none; stroke: #b0b0b0; stroke-width: 0.6; stroke-linecap: square"/>
     </g>
     <g id="line2d_78">
      <defs>
       <path id="mb864074be8" d="M 0 0 
L 4 0 
" style="stroke: #000000; stroke-width: 0.8"/>
      </defs>
      <g>
       <use xlink:href="#mb864074be8" x="38.663677" y="311.932751" style="stroke: #000000; stroke-width: 0.8"/>
      </g>
     </g>
     <g id="text_7">
      <!-- 0.0 -->
      <g transform="translate(17.67024 316.111891) scale(0.11 -0.11)">
       <defs>
        <path id="DejaVuSans-2e" d="M 684 794 
L 1344 794 
L 1344 0 
L 684 0 
L 684 794 
z
" transform="scale(0.015625)"/>
       </defs>
       <use xlink:href="#DejaVuSans-30"/>
       <use xlink:href="#DejaVuSans-2e" transform="translate(63.623047 0)"/>
       <use xlink:href="#DejaVuSans-30" transform="translate(95.410156 0)"/>
      </g>
     </g>
    </g>
    <g id="ytick_2">
     <g id="line2d_79">
      <path d="M 38.663677 258.537376 
L 572.99976 258.537376 
" clip-path="url(#pd5064524b2)" style="fill: none; stroke: #b0b0b0; stroke-width: 0.6; stroke-linecap: square"/>
     </g>
     <g id="line2d_80">
      <g>
       <use xlink:href="#mb864074be8" x="38.663677" y="258.537376" style="stroke: #000000; stroke-width: 0.8"/>
      </g>
     </g>
     <g id="text_8">
      <!-- 0.5 -->
      <g transform="translate(17.67024 262.716517) scale(0.11 -0.11)">
       <use xlink:href="#DejaVuSans-30"/>
       <use xlink:href="#DejaVuSans-2e" transform="translate(63.623047 0)"/>
       <use xlink:href="#DejaVuSans-35" transform="translate(95.410156 0)"/>
      </g>
     </g>
    </g>
    <g id="ytick_3">
     <g id="line2d_81">
      <path d="M 38.663677 205.142002 
L 572.99976 205.142002 
" clip-path="url(#pd5064524b2)" style="fill: none; stroke: #b0b0b0; stroke-width: 0.6; stroke-linecap: square"/>
     </g>
     <g id="line2d_82">
      <g>
       <use xlink:href="#mb864074be8" x="38.663677" y="205.142002" style="stroke: #000000; stroke-width: 0.8"/>
      </g>
     </g>
     <g id="text_9">
      <!-- 1.0 -->
      <g transform="translate(17.67024 209.321142) scale(0.11 -0.11)">
       <use xlink:href="#DejaVuSans-31"/>
       <use xlink:href="#DejaVuSans-2e" transform="translate(63.623047 0)"/>
       <use xlink:href="#DejaVuSans-30" transform="translate(95.410156 0)"/>
      </g>
     </g>
    </g>
    <g id="ytick_4">
     <g id="line2d_83">
      <path d="M 38.663677 151.746627 
L 572.99976 151.746627 
" clip-path="url(#pd5064524b2)" style="fill: none; stroke: #b0b0b0; stroke-width: 0.6; stroke-linecap: square"/>
     </g>
     <g id="line2d_84">
      <g>
       <use xlink:href="#mb864074be8" x="38.663677" y="151.746627" style="stroke: #000000; stroke-width: 0.8"/>
      </g>
     </g>
     <g id="text_10">
      <!-- 1.5 -->
      <g transform="translate(17.67024 155.925768) scale(0.11 -0.11)">
       <use xlink:href="#DejaVuSans-31"/>
       <use xlink:href="#DejaVuSans-2e" transform="translate(63.623047 0)"/>
       <use xlink:href="#DejaVuSans-35" transform="translate(95.410156 0)"/>
      </g>
     </g>
    </g>
    <g id="ytick_5">
     <g id="line2d_85">
      <path d="M 38.663677 98.351253 
L 572.99976 98.351253 
" clip-path="url(#pd5064524b2)" style="fill: none; stroke: #b0b0b0; stroke-width: 0.6; stroke-linecap: square"/>
     </g>
     <g id="line2d_86">
      <g>
       <use xlink:href="#mb864074be8" x="38.663677" y="98.351253" style="stroke: #000000; stroke-width: 0.8"/>
      </g>
     </g>
     <g id="text_11">
      <!-- 2.0 -->
      <g transform="translate(17.67024 102.530393) scale(0.11 -0.11)">
       <use xlink:href="#DejaVuSans-32"/>
       <use xlink:href="#DejaVuSans-2e" transform="translate(63.623047 0)"/>
       <use xlink:href="#DejaVuSans-30" transform="translate(95.410156 0)"/>
      </g>
     </g>
    </g>
    <g id="ytick_6">
     <g id="line2d_87">
      <path d="M 38.663677 44.955878 
L 572.99976 44.955878 
" clip-path="url(#pd5064524b2)" style="fill: none; stroke: #b0b0b0; stroke-width: 0.6; stroke-linecap: square"/>
     </g>
     <g id="line2d_88">
      <g>
       <use xlink:href="#mb864074be8" x="38.663677" y="44.955878" style="stroke: #000000; stroke-width: 0.8"/>
      </g>
     </g>
     <g id="text_12">
      <!-- 2.5 -->
      <g transform="translate(17.67024 49.135019) scale(0.11 -0.11)">
       <use xlink:href="#DejaVuSans-32"/>
       <use xlink:href="#DejaVuSans-2e" transform="translate(63.623047 0)"/>
       <use xlink:href="#DejaVuSans-35" transform="translate(95.410156 0)"/>
      </g>
     </g>
    </g>
    <g id="text_13">
     <!-- W(log$_{10}$M) -->
     <g transform="translate(11.36024 192.817031) rotate(-90) scale(0.11 -0.11)">
      <defs>
       <path id="DejaVuSans-57" d="M 213 4666 
L 850 4666 
L 1831 722 
L 2809 4666 
L 3519 4666 
L 4500 722 
L 5478 4666 
L 6119 4666 
L 4947 0 
L 4153 0 
L 3169 4050 
L 2175 0 
L 1381 0 
L 213 4666 
z
" transform="scale(0.015625)"/>
      </defs>
      <use xlink:href="#DejaVuSans-57" transform="translate(0 0.015625)"/>
      <use xlink:href="#DejaVuSans-28" transform="translate(98.876953 0.015625)"/>
      <use xlink:href="#DejaVuSans-6c" transform="translate(137.890625 0.015625)"/>
      <use xlink:href="#DejaVuSans-6f" transform="translate(165.673828 0.015625)"/>
      <use xlink:href="#DejaVuSans-67" transform="translate(226.855469 0.015625)"/>
      <use xlink:href="#DejaVuSans-31" transform="translate(291.289062 -16.390625) scale(0.7)"/>
      <use xlink:href="#DejaVuSans-30" transform="translate(335.825195 -16.390625) scale(0.7)"/>
      <use xlink:href="#DejaVuSans-4d" transform="translate(383.095703 0.015625)"/>
      <use xlink:href="#DejaVuSans-29" transform="translate(469.375 0.015625)"/>
     </g>
    </g>
   </g>
   <g id="line2d_89">
    <path d="M 33.442887 311.898324 
L 37.658977 311.636932 
L 43.983342 311.096889 
L 47.496419 310.570073 
L 51.712824 309.828666 
L 54.52328 309.659368 
L 56.631349 309.752084 
L 59.442179 310.174291 
L 66.469225 311.440024 
L 69.279951 311.691285 
L 74.901432 311.883979 
L 83.333466 311.912604 
L 117.765179 311.548411 
L 130.413467 311.179832 
L 133.926943 310.734302 
L 137.44037 310.030686 
L 140.251112 309.478223 
L 142.35914 309.289935 
L 144.467217 309.369898 
L 147.277999 309.795059 
L 150.791415 310.311656 
L 153.602138 310.502232 
L 158.520937 310.551681 
L 166.250273 310.394048 
L 172.57486 310.176767 
L 181.006765 310.035747 
L 188.736264 309.999907 
L 202.087585 309.885726 
L 221.762669 309.406151 
L 230.897549 309.167793 
L 251.275435 308.334563 
L 258.30234 307.930548 
L 270.24797 307.408767 
L 281.490941 306.424846 
L 297.652735 304.47379 
L 310.301074 302.29359 
L 319.435874 300.35891 
L 322.949444 299.448763 
L 327.868309 297.913313 
L 332.787038 296.204742 
L 337.705897 294.183389 
L 341.219296 292.520439 
L 345.435316 290.232032 
L 348.948707 288.483773 
L 351.759551 287.158002 
L 353.867628 285.865853 
L 357.38093 283.393703 
L 362.299766 279.578801 
L 365.110547 277.162707 
L 368.623985 273.790758 
L 372.137429 270.04753 
L 375.650853 265.865004 
L 378.46154 262.179119 
L 381.975044 257.182437 
L 385.488431 251.664035 
L 389.001841 245.714523 
L 392.515295 239.279588 
L 395.326022 233.762023 
L 400.244862 223.487176 
L 407.974361 206.99012 
L 411.487741 199.620535 
L 414.298716 194.150777 
L 416.406805 190.56946 
L 417.812012 188.525955 
L 419.21748 186.808379 
L 420.622725 185.490011 
L 422.028177 184.652259 
L 422.730741 184.424031 
L 423.433335 184.32434 
L 424.136266 184.359398 
L 424.838984 184.54022 
L 425.541381 184.878912 
L 426.244171 185.386507 
L 426.946817 186.070472 
L 427.649609 186.935844 
L 429.05514 189.21379 
L 430.460218 192.185326 
L 431.865806 195.764324 
L 433.270948 199.868754 
L 435.379111 206.829557 
L 442.405923 231.009741 
L 444.514018 237.064061 
L 446.622051 242.297683 
L 448.730231 246.882337 
L 451.540928 252.370002 
L 457.162281 262.614589 
L 459.973213 267.420952 
L 462.783867 271.733704 
L 464.891872 274.503284 
L 468.405283 278.344396 
L 471.918713 282.079742 
L 474.729478 284.717823 
L 477.54033 287.018554 
L 481.756366 290.137899 
L 485.972542 292.940716 
L 490.188572 295.493965 
L 492.296605 296.528417 
L 496.512797 298.251136 
L 501.43156 299.960844 
L 506.350337 301.464272 
L 511.971826 302.931293 
L 516.890659 303.893484 
L 522.512124 304.793082 
L 528.133607 305.405656 
L 533.755098 305.805157 
L 547.808672 306.313113 
L 559.051933 306.381498 
L 564.673355 306.212697 
L 577 305.754409 
L 577 305.754409 
" clip-path="url(#pd5064524b2)" style="fill: none; stroke: #0072b2; stroke-width: 2; stroke-linecap: square"/>
   </g>
   <g id="line2d_90">
    <path d="M 37.659802 311.896274 
L 42.585261 311.594958 
L 46.806762 311.120112 
L 53.843027 310.233056 
L 55.953829 310.225217 
L 58.768415 310.497849 
L 68.618833 311.884161 
L 72.840778 311.932729 
L 91.134726 311.836606 
L 99.57808 311.701299 
L 129.833751 311.660658 
L 135.462614 311.327221 
L 142.498858 310.80483 
L 145.313333 310.890387 
L 154.460295 311.491483 
L 161.496525 311.494681 
L 172.754493 311.519811 
L 180.494038 311.463668 
L 200.19543 311.261094 
L 208.638869 311.253817 
L 240.301714 310.482603 
L 257.188455 309.837842 
L 271.964447 309.188752 
L 279.704294 308.595045 
L 296.591054 306.880553 
L 302.923768 306.002269 
L 308.55259 304.981033 
L 314.885242 303.532795 
L 321.921311 301.62335 
L 327.550386 299.785027 
L 332.475475 297.998399 
L 336.697395 296.222734 
L 340.919086 294.182236 
L 344.437121 292.256284 
L 350.066011 288.824779 
L 354.991362 285.464727 
L 359.21304 282.210125 
L 362.027538 279.810608 
L 364.841949 277.177984 
L 368.360029 273.57474 
L 371.878151 269.703453 
L 376.099893 264.63652 
L 380.321614 259.233488 
L 385.246886 252.321136 
L 389.468589 246.113689 
L 393.690289 239.610918 
L 400.022878 229.825521 
L 404.244615 223.700326 
L 407.762681 219.030225 
L 411.280784 214.728742 
L 414.095464 211.670689 
L 416.909642 208.990107 
L 419.020732 207.266294 
L 421.131619 205.819522 
L 423.242309 204.700473 
L 425.353108 203.939225 
L 427.464159 203.495237 
L 428.871346 203.404902 
L 430.278497 203.501106 
L 431.685804 203.774811 
L 433.093056 204.214487 
L 434.500039 204.821669 
L 436.610976 206.048528 
L 438.721775 207.597342 
L 440.83284 209.427827 
L 442.943498 211.60286 
L 445.757898 214.948469 
L 448.572622 218.75457 
L 451.386962 223.040731 
L 454.905172 228.946118 
L 470.384658 255.744793 
L 474.606293 262.182776 
L 477.420868 266.155211 
L 480.938895 270.705887 
L 487.271439 278.365306 
L 491.493172 283.1633 
L 494.30762 286.087249 
L 497.122065 288.700661 
L 499.936632 291.02998 
L 502.751063 293.054351 
L 505.565542 294.797326 
L 509.083602 296.701835 
L 512.601688 298.350865 
L 516.11977 299.76242 
L 520.341496 301.184888 
L 524.563187 302.427125 
L 529.488514 303.616081 
L 533.710246 304.433145 
L 538.635778 305.137827 
L 544.264455 305.753855 
L 551.300782 306.158691 
L 556.929629 306.230021 
L 565.37298 305.994039 
L 577 305.510686 
L 577 305.510686 
" clip-path="url(#pd5064524b2)" style="fill: none; stroke: #e69f00; stroke-width: 2; stroke-linecap: square"/>
   </g>
   <g id="line2d_91">
    <path d="M 37.665848 311.867158 
L 43.29502 311.449936 
L 46.813257 310.901429 
L 54.553833 309.640875 
L 56.664597 309.646051 
L 58.775848 309.861076 
L 61.590375 310.425358 
L 65.812336 311.245458 
L 69.330707 311.672235 
L 72.849082 311.887321 
L 79.182159 311.932751 
L 99.588372 311.825719 
L 107.328641 311.726252 
L 115.77266 311.600984 
L 122.105678 311.498962 
L 129.142339 311.276638 
L 133.364283 310.864242 
L 136.178964 310.384303 
L 141.808268 309.237184 
L 143.215622 309.166567 
L 145.326635 309.339694 
L 148.141306 309.92664 
L 152.36328 310.785886 
L 155.177919 311.123611 
L 158.696252 311.239032 
L 162.918084 311.202782 
L 167.140355 311.175435 
L 169.954887 311.116538 
L 174.176988 310.920855 
L 186.842756 310.59708 
L 196.694158 310.366854 
L 208.656432 310.33616 
L 227.6554 310.538873 
L 262.838721 309.624086 
L 282.541325 308.711994 
L 298.022176 307.192484 
L 302.947519 306.511109 
L 317.724673 304.068883 
L 320.539309 303.40824 
L 331.094232 300.540119 
L 335.31631 299.11216 
L 341.64922 296.598852 
L 345.871202 294.581737 
L 348.685904 293.032517 
L 351.500465 291.271066 
L 355.018813 288.78156 
L 357.83351 286.507737 
L 360.648171 283.866282 
L 362.759171 281.613867 
L 364.870185 279.013907 
L 366.981232 275.956846 
L 368.388517 273.595969 
L 369.79583 270.928401 
L 371.203159 267.880153 
L 372.610464 264.388055 
L 374.017799 260.347361 
L 375.425185 255.623796 
L 376.832517 250.109319 
L 378.239873 243.679629 
L 379.64711 236.177678 
L 381.05445 227.422924 
L 382.461794 217.226093 
L 383.869121 205.381939 
L 385.276472 191.686085 
L 386.683777 176.040747 
L 388.794825 149.068857 
L 390.905822 118.570098 
L 394.424099 66.063242 
L 395.831437 47.643393 
L 397.238763 32.6041 
L 397.942425 26.766424 
L 398.646113 22.257502 
L 399.349775 19.20788 
L 400.053429 17.711312 
L 400.757089 17.817372 
L 401.460766 19.530597 
L 402.164471 22.815885 
L 402.868085 27.603732 
L 403.571807 33.796103 
L 404.979089 49.825449 
L 406.386467 69.4947 
L 411.312119 143.923272 
L 412.71929 161.449028 
L 414.126744 176.364524 
L 415.533886 188.893266 
L 416.941279 199.515921 
L 419.052559 213.276155 
L 422.570534 234.047778 
L 424.681553 245.515756 
L 426.089149 252.392893 
L 427.496578 258.374009 
L 428.903711 263.291939 
L 430.311168 267.151892 
L 431.718374 270.054077 
L 433.125869 272.157924 
L 434.533062 273.6532 
L 435.940423 274.706328 
L 437.347686 275.441468 
L 438.754911 275.93087 
L 440.865954 276.371221 
L 443.680697 276.652454 
L 449.309922 277.172197 
L 451.421129 277.677629 
L 452.828447 278.18498 
L 454.235588 278.880724 
L 456.346644 280.251582 
L 464.087007 285.906606 
L 466.198018 287.0926 
L 468.30903 288.04226 
L 472.531025 289.686901 
L 478.160308 291.397977 
L 483.085979 292.722741 
L 487.307899 293.798456 
L 495.751884 295.469924 
L 498.566567 295.817446 
L 502.084903 296.299589 
L 505.603281 296.83352 
L 511.936198 297.34931 
L 523.898537 298.482646 
L 529.527838 299.186823 
L 548.526769 301.98147 
L 559.78546 303.765782 
L 569.636914 305.443466 
L 577 306.792635 
L 577 306.792635 
" clip-path="url(#pd5064524b2)" style="fill: none; stroke: #009e73; stroke-width: 2; stroke-linecap: square"/>
   </g>
   <g id="patch_3">
    <path d="M 38.663677 326.643822 
L 38.663677 3.00024 
" style="fill: none; stroke: #000000; stroke-width: 0.8; stroke-linejoin: miter; stroke-linecap: square"/>
   </g>
   <g id="patch_4">
    <path d="M 572.99976 326.643822 
L 572.99976 3.00024 
" style="fill: none; stroke: #000000; stroke-width: 0.8; stroke-linejoin: miter; stroke-linecap: square"/>
   </g>
   <g id="patch_5">
    <path d="M 38.663678 326.643822 
L 572.99976 326.643822 
" style="fill: none; stroke: #000000; stroke-width: 0.8; stroke-linejoin: miter; stroke-linecap: square"/>
   </g>
   <g id="patch_6">
    <path d="M 38.663678 3.00024 
L 572.99976 3.00024 
" style="fill: none; stroke: #000000; stroke-width: 0.8; stroke-linejoin: miter; stroke-linecap: square"/>
   </g>
   <g id="legend_1">
    <g id="line2d_92">
     <path d="M 47.663677 16.098677 
L 56.663677 16.098677 
L 65.663678 16.098677 
" style="fill: none; stroke: #0072b2; stroke-width: 2; stroke-linecap: square"/>
    </g>
    <g id="text_14">
     <!-- cycMo(oct)-2 -->
     <g transform="translate(71.663678 19.598677) scale(0.1 -0.1)">
      <defs>
       <path id="DejaVuSans-79" d="M 2059 -325 
Q 1816 -950 1584 -1140 
Q 1353 -1331 966 -1331 
L 506 -1331 
L 506 -850 
L 844 -850 
Q 1081 -850 1212 -737 
Q 1344 -625 1503 -206 
L 1606 56 
L 191 3500 
L 800 3500 
L 1894 763 
L 2988 3500 
L 3597 3500 
L 2059 -325 
z
" transform="scale(0.015625)"/>
       <path id="DejaVuSans-2d" d="M 313 2009 
L 1997 2009 
L 1997 1497 
L 313 1497 
L 313 2009 
z
" transform="scale(0.015625)"/>
      </defs>
      <use xlink:href="#DejaVuSans-63"/>
      <use xlink:href="#DejaVuSans-79" transform="translate(54.980469 0)"/>
      <use xlink:href="#DejaVuSans-63" transform="translate(114.160156 0)"/>
      <use xlink:href="#DejaVuSans-4d" transform="translate(169.140625 0)"/>
      <use xlink:href="#DejaVuSans-6f" transform="translate(255.419922 0)"/>
      <use xlink:href="#DejaVuSans-28" transform="translate(316.601562 0)"/>
      <use xlink:href="#DejaVuSans-6f" transform="translate(355.615234 0)"/>
      <use xlink:href="#DejaVuSans-63" transform="translate(416.796875 0)"/>
      <use xlink:href="#DejaVuSans-74" transform="translate(471.777344 0)"/>
      <use xlink:href="#DejaVuSans-29" transform="translate(510.986328 0)"/>
      <use xlink:href="#DejaVuSans-2d" transform="translate(550 0)"/>
      <use xlink:href="#DejaVuSans-32" transform="translate(586.083984 0)"/>
     </g>
    </g>
    <g id="line2d_93">
     <path d="M 47.663677 30.776802 
L 56.663677 30.776802 
L 65.663678 30.776802 
" style="fill: none; stroke: #e69f00; stroke-width: 2; stroke-linecap: square"/>
    </g>
    <g id="text_15">
     <!-- cycMo(oct)-2_Zn -->
     <g transform="translate(71.663678 34.276802) scale(0.1 -0.1)">
      <defs>
       <path id="DejaVuSans-5f" d="M 3263 -1063 
L 3263 -1509 
L -63 -1509 
L -63 -1063 
L 3263 -1063 
z
" transform="scale(0.015625)"/>
       <path id="DejaVuSans-5a" d="M 359 4666 
L 4025 4666 
L 4025 4184 
L 1075 531 
L 4097 531 
L 4097 0 
L 288 0 
L 288 481 
L 3238 4134 
L 359 4134 
L 359 4666 
z
" transform="scale(0.015625)"/>
       <path id="DejaVuSans-6e" d="M 3513 2113 
L 3513 0 
L 2938 0 
L 2938 2094 
Q 2938 2591 2744 2837 
Q 2550 3084 2163 3084 
Q 1697 3084 1428 2787 
Q 1159 2491 1159 1978 
L 1159 0 
L 581 0 
L 581 3500 
L 1159 3500 
L 1159 2956 
Q 1366 3272 1645 3428 
Q 1925 3584 2291 3584 
Q 2894 3584 3203 3211 
Q 3513 2838 3513 2113 
z
" transform="scale(0.015625)"/>
      </defs>
      <use xlink:href="#DejaVuSans-63"/>
      <use xlink:href="#DejaVuSans-79" transform="translate(54.980469 0)"/>
      <use xlink:href="#DejaVuSans-63" transform="translate(114.160156 0)"/>
      <use xlink:href="#DejaVuSans-4d" transform="translate(169.140625 0)"/>
      <use xlink:href="#DejaVuSans-6f" transform="translate(255.419922 0)"/>
      <use xlink:href="#DejaVuSans-28" transform="translate(316.601562 0)"/>
      <use xlink:href="#DejaVuSans-6f" transform="translate(355.615234 0)"/>
      <use xlink:href="#DejaVuSans-63" transform="translate(416.796875 0)"/>
      <use xlink:href="#DejaVuSans-74" transform="translate(471.777344 0)"/>
      <use xlink:href="#DejaVuSans-29" transform="translate(510.986328 0)"/>
      <use xlink:href="#DejaVuSans-2d" transform="translate(550 0)"/>
      <use xlink:href="#DejaVuSans-32" transform="translate(586.083984 0)"/>
      <use xlink:href="#DejaVuSans-5f" transform="translate(649.707031 0)"/>
      <use xlink:href="#DejaVuSans-5a" transform="translate(699.707031 0)"/>
      <use xlink:href="#DejaVuSans-6e" transform="translate(768.212891 0)"/>
     </g>
    </g>
    <g id="line2d_94">
     <path d="M 47.663677 45.733052 
L 56.663677 45.733052 
L 65.663678 45.733052 
" style="fill: none; stroke: #009e73; stroke-width: 2; stroke-linecap: square"/>
    </g>
    <g id="text_16">
     <!-- cycMo(oct)-2active -->
     <g transform="translate(71.663678 49.233052) scale(0.1 -0.1)">
      <defs>
       <path id="DejaVuSans-2022" d="M 959 2381 
Q 959 2769 1229 3036 
Q 1500 3303 1894 3303 
Q 2281 3303 2548 3036 
Q 2816 2769 2816 2381 
Q 2816 1991 2547 1722 
Q 2278 1453 1888 1453 
Q 1497 1453 1228 1722 
Q 959 1991 959 2381 
z
" transform="scale(0.015625)"/>
       <path id="DejaVuSans-76" d="M 191 3500 
L 800 3500 
L 1894 563 
L 2988 3500 
L 3597 3500 
L 2284 0 
L 1503 0 
L 191 3500 
z
" transform="scale(0.015625)"/>
      </defs>
      <use xlink:href="#DejaVuSans-63"/>
      <use xlink:href="#DejaVuSans-79" transform="translate(54.980469 0)"/>
      <use xlink:href="#DejaVuSans-63" transform="translate(114.160156 0)"/>
      <use xlink:href="#DejaVuSans-4d" transform="translate(169.140625 0)"/>
      <use xlink:href="#DejaVuSans-6f" transform="translate(255.419922 0)"/>
      <use xlink:href="#DejaVuSans-28" transform="translate(316.601562 0)"/>
      <use xlink:href="#DejaVuSans-6f" transform="translate(355.615234 0)"/>
      <use xlink:href="#DejaVuSans-63" transform="translate(416.796875 0)"/>
      <use xlink:href="#DejaVuSans-74" transform="translate(471.777344 0)"/>
      <use xlink:href="#DejaVuSans-29" transform="translate(510.986328 0)"/>
      <use xlink:href="#DejaVuSans-2d" transform="translate(550 0)"/>
      <use xlink:href="#DejaVuSans-32" transform="translate(586.083984 0)"/>
      <use xlink:href="#DejaVuSans-2022" transform="translate(649.707031 0)"/>
      <use xlink:href="#DejaVuSans-61" transform="translate(708.691406 0)"/>
      <use xlink:href="#DejaVuSans-63" transform="translate(769.970703 0)"/>
      <use xlink:href="#DejaVuSans-74" transform="translate(824.951172 0)"/>
      <use xlink:href="#DejaVuSans-69" transform="translate(864.160156 0)"/>
      <use xlink:href="#DejaVuSans-76" transform="translate(891.943359 0)"/>
      <use xlink:href="#DejaVuSans-65" transform="translate(951.123047 0)"/>
     </g>
    </g>
   </g>
  </g>
 </g>
 <defs>
  <clipPath id="pd5064524b2">
   <rect x="38.663677" y="3.00024" width="534.336082" height="323.643583"/>
  </clipPath>
 </defs>
</svg>
